# MagicaVoxel @ Ephtracy

# material
mtllib book of Egypt.mtl
usemtl palette

# normals
vn -1 0 0
vn 1 0 0
vn 0 0 1
vn 0 0 -1
vn 0 -1 0
vn 0 1 0

# texcoords
vt 0.0136719 0.5
vt 0.0175781 0.5
vt 0.0214844 0.5
vt 0.0292969 0.5
vt 0.306641 0.5
vt 0.533203 0.5

# verts
v -20 0 20
v -20 0 -20
v -20 1 17
v -20 1 16
v -20 1 9
v -20 1 8
v -20 1 3
v -20 1 2
v -20 1 -4
v -20 1 -8
v -20 1 -12
v -20 1 -16
v -20 2 -5
v -20 2 -7
v -20 2 -12
v -20 2 -15
v -20 3 11
v -20 3 9
v -20 3 -3
v -20 3 -4
v -20 3 -5
v -20 3 -6
v -20 3 -14
v -20 3 -15
v -20 4 10
v -20 4 9
v -20 4 4
v -20 4 3
v -20 4 2
v -20 4 1
v -20 4 -3
v -20 4 -6
v -20 4 -14
v -20 4 -15
v -20 5 19
v -20 5 17
v -20 5 16
v -20 5 14
v -20 5 10
v -20 5 9
v -20 5 -4
v -20 5 -7
v -20 5 -12
v -20 5 -15
v -20 6 20
v -20 6 19
v -20 6 18
v -20 6 14
v -20 6 11
v -20 6 8
v -20 6 4
v -20 6 3
v -20 6 2
v -20 6 1
v -20 6 -4
v -20 6 -8
v -20 6 -12
v -20 6 -16
v -20 6 -17
v -20 6 -20
v -20 7 20
v -20 7 18
v -20 7 -17
v -20 7 -20
v 20 0 20
v 20 0 -20
v 20 1 20
v 20 1 -20
v 20 6 20
v 20 6 18
v 20 6 10
v 20 6 9
v 20 6 -17
v 20 6 -20
v 20 7 20
v 20 7 18
v 20 7 10
v 20 7 9
v 20 7 -17
v 20 7 -20
v -20 0 20
v -20 6 20
v -20 7 20
v -19 1 20
v -19 6 20
v -18 6 20
v -18 7 20
v 18 6 20
v 18 7 20
v 20 0 20
v 20 1 20
v 20 6 20
v 20 7 20
v -20 0 -20
v -20 6 -20
v -20 7 -20
v -19 1 -20
v -19 6 -20
v -17 6 -20
v -17 7 -20
v 17 6 -20
v 17 7 -20
v 20 0 -20
v 20 1 -20
v 20 6 -20
v 20 7 -20
v -20 0 20
v 20 0 20
v -19 0 19
v 19 0 19
v -19 0 -19
v 19 0 -19
v -20 0 -20
v 20 0 -20
v -20 7 20
v -18 7 20
v 18 7 20
v 20 7 20
v -19 7 19
v -18 7 19
v -13 7 19
v -11 7 19
v -5 7 19
v 1 7 19
v 2 7 19
v 7 7 19
v 8 7 19
v 17 7 19
v 18 7 19
v 19 7 19
v -20 7 18
v -19 7 18
v -17 7 18
v -13 7 18
v -10 7 18
v -6 7 18
v 19 7 18
v 20 7 18
v -8 7 15
v -6 7 15
v -5 7 15
v -4 7 15
v -17 7 14
v -16 7 14
v -8 7 14
v -4 7 14
v 0 7 14
v 1 7 14
v 2 7 14
v 3 7 14
v 8 7 14
v 12 7 14
v -17 7 13
v -16 7 13
v 8 7 13
v 11 7 13
v -1 7 12
v 0 7 12
v 1 7 12
v 2 7 12
v 3 7 12
v 4 7 12
v -17 7 10
v -13 7 10
v -10 7 10
v -4 7 10
v -2 7 10
v -1 7 10
v 0 7 10
v 3 7 10
v 4 7 10
v 5 7 10
v 8 7 10
v 11 7 10
v 14 7 10
v 17 7 10
v 18 7 10
v 20 7 10
v -18 7 9
v -13 7 9
v -11 7 9
v -4 7 9
v -2 7 9
v -1 7 9
v 4 7 9
v 5 7 9
v 7 7 9
v 12 7 9
v 14 7 9
v 20 7 9
v 2 7 5
v 4 7 5
v -10 7 4
v -6 7 4
v 3 7 4
v 4 7 4
v 5 7 4
v -9 7 3
v -6 7 3
v -5 7 3
v 4 7 3
v 5 7 3
v 6 7 3
v -8 7 2
v -7 7 2
v -6 7 2
v -5 7 2
v -4 7 2
v 5 7 2
v 6 7 2
v -9 7 1
v -8 7 1
v -5 7 1
v -4 7 1
v -3 7 1
v -10 7 -0
v -7 7 -0
v -4 7 -0
v -3 7 -0
v -2 7 -0
v -3 7 -1
v -2 7 -1
v -1 7 -1
v -2 7 -2
v -1 7 -2
v 0 7 -2
v -2 7 -3
v -1 7 -3
v 0 7 -3
v 2 7 -3
v 3 7 -3
v 6 7 -3
v -3 7 -4
v -2 7 -4
v 6 7 -4
v 7 7 -4
v -4 7 -5
v -3 7 -5
v -2 7 -5
v -1 7 -5
v 5 7 -5
v 6 7 -5
v 7 7 -5
v 8 7 -5
v -5 7 -6
v -4 7 -6
v -3 7 -6
v -2 7 -6
v -1 7 -6
v 5 7 -6
v 6 7 -6
v 7 7 -6
v 8 7 -6
v 9 7 -6
v -12 7 -7
v -5 7 -7
v -4 7 -7
v -2 7 -7
v -1 7 -7
v 2 7 -7
v 3 7 -7
v 6 7 -7
v 7 7 -7
v 8 7 -7
v 9 7 -7
v 12 7 -7
v -12 7 -8
v -5 7 -8
v -4 7 -8
v -3 7 -8
v -2 7 -8
v 1 7 -8
v 2 7 -8
v 3 7 -8
v 4 7 -8
v 7 7 -8
v 8 7 -8
v -5 7 -9
v -4 7 -9
v -3 7 -9
v 1 7 -9
v 2 7 -9
v 3 7 -9
v 4 7 -9
v 8 7 -9
v 9 7 -9
v 12 7 -9
v -4 7 -10
v -3 7 -10
v -2 7 -10
v 2 7 -10
v 3 7 -10
v 7 7 -10
v 8 7 -10
v 9 7 -10
v -3 7 -11
v -2 7 -11
v -1 7 -11
v 6 7 -11
v 7 7 -11
v 8 7 -11
v -13 7 -12
v -6 7 -12
v -2 7 -12
v -1 7 -12
v 6 7 -12
v 7 7 -12
v -13 7 -13
v -6 7 -13
v -5 7 -13
v -1 7 -13
v 6 7 -13
v -6 7 -14
v -5 7 -14
v -4 7 -14
v -5 7 -15
v -4 7 -15
v -3 7 -15
v 7 7 -15
v 8 7 -15
v -4 7 -16
v -3 7 -16
v 7 7 -16
v 8 7 -16
v -20 7 -17
v -19 7 -17
v -3 7 -17
v 7 7 -17
v 19 7 -17
v 20 7 -17
v -19 7 -18
v -18 7 -18
v 18 7 -18
v 19 7 -18
v -18 7 -19
v -17 7 -19
v 17 7 -19
v 18 7 -19
v -20 7 -20
v -17 7 -20
v 17 7 -20
v 20 7 -20

# faces
f 3/6/1 2/6/1 1/6/1
f 4/6/1 2/6/1 3/6/1
f 5/6/1 2/6/1 4/6/1
f 6/6/1 2/6/1 5/6/1
f 7/6/1 2/6/1 6/6/1
f 8/6/1 2/6/1 7/6/1
f 9/6/1 2/6/1 8/6/1
f 10/6/1 2/6/1 9/6/1
f 11/6/1 2/6/1 10/6/1
f 12/6/1 2/6/1 11/6/1
f 13/2/1 10/2/1 9/2/1
f 14/2/1 10/2/1 13/2/1
f 15/6/1 11/6/1 10/6/1
f 15/2/1 12/2/1 11/2/1
f 16/2/1 12/2/1 15/2/1
f 17/6/1 5/6/1 4/6/1
f 18/2/1 6/2/1 5/2/1
f 18/6/1 5/6/1 17/6/1
f 19/6/1 9/6/1 8/6/1
f 20/2/1 13/2/1 9/2/1
f 20/6/1 9/6/1 19/6/1
f 21/6/1 14/6/1 13/6/1
f 21/2/1 13/2/1 20/2/1
f 22/6/1 14/6/1 21/6/1
f 23/6/1 16/6/1 15/6/1
f 24/2/1 12/2/1 16/2/1
f 24/6/1 16/6/1 23/6/1
f 25/2/1 18/2/1 17/2/1
f 26/2/1 6/2/1 18/2/1
f 26/2/1 18/2/1 25/2/1
f 27/6/1 7/6/1 6/6/1
f 28/2/1 8/2/1 7/2/1
f 28/6/1 7/6/1 27/6/1
f 29/6/1 19/6/1 8/6/1
f 29/2/1 8/2/1 28/2/1
f 30/6/1 19/6/1 29/6/1
f 31/2/1 20/2/1 19/2/1
f 31/6/1 19/6/1 30/6/1
f 31/2/1 21/2/1 20/2/1
f 31/2/1 22/2/1 21/2/1
f 32/6/1 14/6/1 22/6/1
f 32/2/1 22/2/1 31/2/1
f 33/6/1 23/6/1 15/6/1
f 33/2/1 24/2/1 23/2/1
f 34/2/1 12/2/1 24/2/1
f 34/2/1 24/2/1 33/2/1
f 35/6/1 3/6/1 1/6/1
f 36/2/1 4/2/1 3/2/1
f 36/6/1 3/6/1 35/6/1
f 37/6/1 17/6/1 4/6/1
f 37/2/1 4/2/1 36/2/1
f 38/6/1 17/6/1 37/6/1
f 39/2/1 25/2/1 17/2/1
f 39/6/1 26/6/1 25/6/1
f 40/2/1 6/2/1 26/2/1
f 40/6/1 26/6/1 39/6/1
f 41/6/1 31/6/1 30/6/1
f 41/6/1 32/6/1 31/6/1
f 42/6/1 14/6/1 32/6/1
f 42/6/1 32/6/1 41/6/1
f 42/2/1 10/2/1 14/2/1
f 43/6/1 15/6/1 10/6/1
f 43/6/1 33/6/1 15/6/1
f 43/6/1 34/6/1 33/6/1
f 44/2/1 12/2/1 34/2/1
f 44/6/1 34/6/1 43/6/1
f 45/6/1 35/6/1 1/6/1
f 46/2/1 36/2/1 35/2/1
f 46/6/1 35/6/1 45/6/1
f 46/2/1 37/2/1 36/2/1
f 46/2/1 38/2/1 37/2/1
f 47/2/1 38/2/1 46/2/1
f 48/6/1 17/6/1 38/6/1
f 48/2/1 38/2/1 47/2/1
f 49/2/1 39/2/1 17/2/1
f 49/6/1 17/6/1 48/6/1
f 49/2/1 40/2/1 39/2/1
f 50/6/1 27/6/1 6/6/1
f 50/2/1 40/2/1 49/2/1
f 50/2/1 6/2/1 40/2/1
f 51/2/1 28/2/1 27/2/1
f 51/6/1 27/6/1 50/6/1
f 52/6/1 29/6/1 28/6/1
f 52/2/1 28/2/1 51/2/1
f 53/2/1 30/2/1 29/2/1
f 53/6/1 29/6/1 52/6/1
f 54/6/1 41/6/1 30/6/1
f 54/2/1 30/2/1 53/2/1
f 55/2/1 42/2/1 41/2/1
f 55/6/1 41/6/1 54/6/1
f 56/6/1 43/6/1 10/6/1
f 56/2/1 42/2/1 55/2/1
f 56/2/1 10/2/1 42/2/1
f 57/2/1 44/2/1 43/2/1
f 57/6/1 43/6/1 56/6/1
f 58/2/1 12/2/1 44/2/1
f 58/2/1 44/2/1 57/2/1
f 58/6/1 2/6/1 12/6/1
f 59/6/1 2/6/1 58/6/1
f 60/6/1 2/6/1 59/6/1
f 61/2/1 47/2/1 46/2/1
f 61/2/1 46/2/1 45/2/1
f 62/6/1 55/6/1 54/6/1
f 62/2/1 47/2/1 61/2/1
f 62/6/1 57/6/1 56/6/1
f 62/6/1 59/6/1 58/6/1
f 62/6/1 58/6/1 57/6/1
f 62/6/1 53/6/1 52/6/1
f 62/6/1 51/6/1 50/6/1
f 62/6/1 50/6/1 49/6/1
f 62/6/1 52/6/1 51/6/1
f 62/6/1 56/6/1 55/6/1
f 62/6/1 54/6/1 53/6/1
f 62/6/1 48/6/1 47/6/1
f 62/6/1 49/6/1 48/6/1
f 63/2/1 60/2/1 59/2/1
f 63/6/1 59/6/1 62/6/1
f 64/2/1 60/2/1 63/2/1
f 65/6/2 66/6/2 67/6/2
f 67/6/2 66/6/2 68/6/2
f 67/4/2 68/4/2 69/4/2
f 69/4/2 68/4/2 70/4/2
f 70/4/2 68/4/2 71/4/2
f 71/4/2 68/4/2 72/4/2
f 72/4/2 68/4/2 73/4/2
f 73/4/2 68/4/2 74/4/2
f 69/2/2 70/2/2 75/2/2
f 70/6/2 71/6/2 76/6/2
f 75/2/2 70/2/2 76/2/2
f 71/3/2 72/3/2 77/3/2
f 76/6/2 71/6/2 77/6/2
f 72/6/2 73/6/2 78/6/2
f 77/3/2 72/3/2 78/3/2
f 73/2/2 74/2/2 79/2/2
f 78/6/2 73/6/2 79/6/2
f 79/2/2 74/2/2 80/2/2
f 84/6/3 82/6/3 81/6/3
f 85/2/3 83/2/3 82/2/3
f 85/6/3 82/6/3 84/6/3
f 86/4/3 85/4/3 84/4/3
f 86/2/3 83/2/3 85/2/3
f 87/2/3 83/2/3 86/2/3
f 88/4/3 86/4/3 84/4/3
f 88/6/3 87/6/3 86/6/3
f 89/6/3 87/6/3 88/6/3
f 90/6/3 84/6/3 81/6/3
f 91/4/3 88/4/3 84/4/3
f 91/6/3 84/6/3 90/6/3
f 92/2/3 89/2/3 88/2/3
f 92/4/3 88/4/3 91/4/3
f 93/2/3 89/2/3 92/2/3
f 94/6/4 95/6/4 97/6/4
f 95/2/4 96/2/4 98/2/4
f 97/6/4 95/6/4 98/6/4
f 97/4/4 98/4/4 99/4/4
f 98/2/4 96/2/4 99/2/4
f 99/2/4 96/2/4 100/2/4
f 97/4/4 99/4/4 101/4/4
f 99/6/4 100/6/4 101/6/4
f 101/6/4 100/6/4 102/6/4
f 94/6/4 97/6/4 103/6/4
f 97/4/4 101/4/4 104/4/4
f 103/6/4 97/6/4 104/6/4
f 101/2/4 102/2/4 105/2/4
f 104/4/4 101/4/4 105/4/4
f 105/2/4 102/2/4 106/2/4
f 109/6/5 108/6/5 107/6/5
f 110/6/5 108/6/5 109/6/5
f 111/6/5 109/6/5 107/6/5
f 111/5/5 110/5/5 109/5/5
f 112/6/5 108/6/5 110/6/5
f 112/5/5 110/5/5 111/5/5
f 113/6/5 111/6/5 107/6/5
f 113/6/5 112/6/5 111/6/5
f 114/6/5 108/6/5 112/6/5
f 114/6/5 112/6/5 113/6/5
f 115/2/6 116/2/6 119/2/6
f 116/6/6 117/6/6 120/6/6
f 119/2/6 116/2/6 120/2/6
f 120/6/6 117/6/6 121/6/6
f 121/6/6 117/6/6 122/6/6
f 122/6/6 117/6/6 123/6/6
f 123/6/6 117/6/6 124/6/6
f 124/6/6 117/6/6 125/6/6
f 125/6/6 117/6/6 126/6/6
f 126/6/6 117/6/6 127/6/6
f 127/6/6 117/6/6 128/6/6
f 117/2/6 118/2/6 129/2/6
f 128/6/6 117/6/6 129/6/6
f 129/2/6 118/2/6 130/2/6
f 115/2/6 119/2/6 131/2/6
f 119/6/6 120/6/6 132/6/6
f 131/2/6 119/2/6 132/2/6
f 120/3/6 121/3/6 133/3/6
f 121/6/6 122/6/6 134/6/6
f 133/3/6 121/3/6 134/3/6
f 122/3/6 123/3/6 135/3/6
f 135/3/6 123/3/6 136/3/6
f 130/2/6 118/2/6 137/2/6
f 129/6/6 130/6/6 137/6/6
f 137/2/6 118/2/6 138/2/6
f 135/6/6 136/6/6 139/6/6
f 136/3/6 123/3/6 140/3/6
f 139/6/6 136/6/6 140/6/6
f 123/6/6 124/6/6 141/6/6
f 140/3/6 123/3/6 141/3/6
f 141/6/6 124/6/6 142/6/6
f 120/3/6 133/3/6 143/3/6
f 133/6/6 134/6/6 143/6/6
f 143/6/6 134/6/6 144/6/6
f 135/6/6 139/6/6 145/6/6
f 139/3/6 140/3/6 145/3/6
f 141/3/6 142/3/6 145/3/6
f 140/3/6 141/3/6 145/3/6
f 142/6/6 124/6/6 146/6/6
f 145/3/6 142/3/6 146/3/6
f 146/6/6 124/6/6 147/6/6
f 124/3/6 125/3/6 148/3/6
f 147/6/6 124/6/6 148/6/6
f 125/6/6 126/6/6 149/6/6
f 148/3/6 125/3/6 149/3/6
f 149/6/6 126/6/6 150/6/6
f 127/6/6 128/6/6 151/6/6
f 126/3/6 127/3/6 151/3/6
f 151/6/6 128/6/6 152/6/6
f 143/3/6 144/3/6 153/3/6
f 120/3/6 143/3/6 153/3/6
f 144/6/6 134/6/6 154/6/6
f 153/3/6 144/3/6 154/3/6
f 151/3/6 152/3/6 155/3/6
f 126/3/6 151/3/6 155/3/6
f 155/3/6 152/3/6 156/3/6
f 146/6/6 147/6/6 157/6/6
f 145/6/6 146/6/6 157/6/6
f 147/3/6 148/3/6 158/3/6
f 157/6/6 147/6/6 158/6/6
f 148/6/6 149/6/6 159/6/6
f 158/3/6 148/3/6 159/3/6
f 149/3/6 150/3/6 160/3/6
f 159/6/6 149/6/6 160/6/6
f 150/6/6 126/6/6 161/6/6
f 160/3/6 150/3/6 161/3/6
f 161/6/6 126/6/6 162/6/6
f 120/3/6 153/3/6 163/3/6
f 153/6/6 154/6/6 163/6/6
f 134/6/6 122/6/6 164/6/6
f 163/6/6 154/6/6 164/6/6
f 154/6/6 134/6/6 164/6/6
f 135/6/6 145/6/6 165/6/6
f 145/6/6 157/6/6 165/6/6
f 122/3/6 135/3/6 165/3/6
f 165/6/6 157/6/6 166/6/6
f 166/6/6 157/6/6 167/6/6
f 157/3/6 158/3/6 168/3/6
f 167/6/6 157/6/6 168/6/6
f 159/6/6 160/6/6 169/6/6
f 168/3/6 158/3/6 169/3/6
f 158/6/6 159/6/6 169/6/6
f 160/6/6 161/6/6 169/6/6
f 161/3/6 162/3/6 170/3/6
f 169/6/6 161/6/6 170/6/6
f 162/6/6 126/6/6 171/6/6
f 170/3/6 162/3/6 171/3/6
f 171/6/6 126/6/6 172/6/6
f 126/3/6 155/3/6 173/3/6
f 155/6/6 156/6/6 173/6/6
f 156/3/6 152/3/6 174/3/6
f 173/6/6 156/6/6 174/6/6
f 152/6/6 128/6/6 175/6/6
f 128/3/6 129/3/6 176/3/6
f 175/6/6 128/6/6 176/6/6
f 129/6/6 137/6/6 177/6/6
f 176/3/6 129/3/6 177/3/6
f 137/6/6 138/6/6 177/6/6
f 177/6/6 138/6/6 178/6/6
f 132/6/6 120/6/6 179/6/6
f 120/3/6 163/3/6 179/3/6
f 163/3/6 164/3/6 179/3/6
f 131/6/6 132/6/6 179/6/6
f 164/6/6 122/6/6 180/6/6
f 179/3/6 164/3/6 180/3/6
f 165/3/6 166/3/6 181/3/6
f 180/6/6 122/6/6 181/6/6
f 122/3/6 165/3/6 181/3/6
f 166/6/6 167/6/6 182/6/6
f 181/3/6 166/3/6 182/3/6
f 167/3/6 168/3/6 183/3/6
f 182/6/6 167/6/6 183/6/6
f 169/6/6 170/6/6 184/6/6
f 183/3/6 168/3/6 184/3/6
f 170/6/6 171/6/6 184/6/6
f 168/6/6 169/6/6 184/6/6
f 171/3/6 172/3/6 185/3/6
f 184/6/6 171/6/6 185/6/6
f 172/6/6 126/6/6 186/6/6
f 185/3/6 172/3/6 186/3/6
f 126/3/6 173/3/6 187/3/6
f 186/6/6 126/6/6 187/6/6
f 173/3/6 174/3/6 187/3/6
f 174/3/6 152/3/6 188/3/6
f 187/3/6 174/3/6 188/3/6
f 152/6/6 175/6/6 188/6/6
f 177/3/6 178/3/6 189/3/6
f 188/6/6 175/6/6 189/6/6
f 176/3/6 177/3/6 189/3/6
f 175/3/6 176/3/6 189/3/6
f 189/3/6 178/3/6 190/3/6
f 181/6/6 182/6/6 191/6/6
f 182/6/6 183/6/6 191/6/6
f 189/6/6 190/6/6 191/6/6
f 188/6/6 189/6/6 191/6/6
f 180/6/6 181/6/6 191/6/6
f 187/6/6 188/6/6 191/6/6
f 183/6/6 184/6/6 191/6/6
f 179/6/6 180/6/6 191/6/6
f 184/6/6 185/6/6 191/6/6
f 185/6/6 186/6/6 191/6/6
f 186/6/6 187/6/6 191/6/6
f 191/6/6 190/6/6 192/6/6
f 179/6/6 191/6/6 193/6/6
f 193/6/6 191/6/6 194/6/6
f 191/1/6 192/1/6 195/1/6
f 192/6/6 190/6/6 196/6/6
f 195/1/6 192/1/6 196/1/6
f 196/6/6 190/6/6 197/6/6
f 193/1/6 194/1/6 198/1/6
f 194/6/6 191/6/6 199/6/6
f 198/1/6 194/1/6 199/1/6
f 199/6/6 191/6/6 200/6/6
f 195/6/6 196/6/6 201/6/6
f 196/1/6 197/1/6 201/1/6
f 197/6/6 190/6/6 202/6/6
f 201/1/6 197/1/6 202/1/6
f 202/6/6 190/6/6 203/6/6
f 198/6/6 199/6/6 204/6/6
f 204/6/6 199/6/6 205/6/6
f 199/1/6 200/1/6 206/1/6
f 205/6/6 199/6/6 206/6/6
f 200/6/6 191/6/6 207/6/6
f 206/1/6 200/1/6 207/1/6
f 207/6/6 191/6/6 208/6/6
f 201/6/6 202/6/6 209/6/6
f 202/1/6 203/1/6 209/1/6
f 203/6/6 190/6/6 210/6/6
f 209/1/6 203/1/6 210/1/6
f 193/1/6 198/1/6 211/1/6
f 198/6/6 204/6/6 211/6/6
f 204/1/6 205/1/6 212/1/6
f 211/6/6 204/6/6 212/6/6
f 205/6/6 206/6/6 213/6/6
f 207/1/6 208/1/6 213/1/6
f 206/6/6 207/6/6 213/6/6
f 208/6/6 191/6/6 214/6/6
f 213/1/6 208/1/6 214/1/6
f 214/6/6 191/6/6 215/6/6
f 179/6/6 193/6/6 216/6/6
f 193/1/6 211/1/6 216/1/6
f 211/1/6 212/1/6 216/1/6
f 212/1/6 205/1/6 217/1/6
f 216/1/6 212/1/6 217/1/6
f 205/6/6 213/6/6 217/6/6
f 213/6/6 214/6/6 217/6/6
f 214/1/6 215/1/6 218/1/6
f 217/6/6 214/6/6 218/6/6
f 215/6/6 191/6/6 219/6/6
f 218/1/6 215/1/6 219/1/6
f 219/6/6 191/6/6 220/6/6
f 217/6/6 218/6/6 221/6/6
f 216/6/6 217/6/6 221/6/6
f 219/1/6 220/1/6 221/1/6
f 218/6/6 219/6/6 221/6/6
f 220/6/6 191/6/6 222/6/6
f 221/1/6 220/1/6 222/1/6
f 222/6/6 191/6/6 223/6/6
f 221/6/6 222/6/6 224/6/6
f 222/1/6 223/1/6 224/1/6
f 223/6/6 191/6/6 225/6/6
f 224/1/6 223/1/6 225/1/6
f 225/6/6 191/6/6 226/6/6
f 221/6/6 224/6/6 227/6/6
f 224/6/6 225/6/6 227/6/6
f 225/1/6 226/1/6 228/1/6
f 227/6/6 225/6/6 228/6/6
f 226/6/6 191/6/6 229/6/6
f 228/1/6 226/1/6 229/1/6
f 191/1/6 195/1/6 230/1/6
f 229/6/6 191/6/6 230/6/6
f 195/6/6 201/6/6 231/6/6
f 230/1/6 195/1/6 231/1/6
f 209/6/6 210/6/6 231/6/6
f 201/6/6 209/6/6 231/6/6
f 210/6/6 190/6/6 232/6/6
f 231/6/6 210/6/6 232/6/6
f 216/6/6 221/6/6 233/6/6
f 221/6/6 227/6/6 233/6/6
f 228/1/6 229/1/6 234/1/6
f 233/6/6 227/6/6 234/6/6
f 230/1/6 231/1/6 234/1/6
f 227/1/6 228/1/6 234/1/6
f 231/1/6 232/1/6 234/1/6
f 229/1/6 230/1/6 234/1/6
f 232/6/6 190/6/6 235/6/6
f 234/1/6 232/1/6 235/1/6
f 235/6/6 190/6/6 236/6/6
f 216/6/6 233/6/6 237/6/6
f 233/1/6 234/1/6 238/1/6
f 237/6/6 233/6/6 238/6/6
f 234/6/6 235/6/6 239/6/6
f 238/1/6 234/1/6 239/1/6
f 239/6/6 235/6/6 240/6/6
f 240/6/6 235/6/6 241/6/6
f 235/1/6 236/1/6 242/1/6
f 241/6/6 235/6/6 242/6/6
f 236/6/6 190/6/6 243/6/6
f 242/1/6 236/1/6 243/1/6
f 243/6/6 190/6/6 244/6/6
f 216/6/6 237/6/6 245/6/6
f 237/1/6 238/1/6 246/1/6
f 245/6/6 237/6/6 246/6/6
f 238/6/6 239/6/6 247/6/6
f 246/1/6 238/1/6 247/1/6
f 239/6/6 240/6/6 247/6/6
f 247/6/6 240/6/6 248/6/6
f 240/3/6 241/3/6 249/3/6
f 248/6/6 240/6/6 249/6/6
f 241/6/6 242/6/6 250/6/6
f 249/3/6 241/3/6 250/3/6
f 242/6/6 243/6/6 250/6/6
f 250/6/6 243/6/6 251/6/6
f 243/1/6 244/1/6 252/1/6
f 251/6/6 243/6/6 252/6/6
f 244/6/6 190/6/6 253/6/6
f 252/1/6 244/1/6 253/1/6
f 253/6/6 190/6/6 254/6/6
f 179/6/6 216/6/6 255/6/6
f 216/6/6 245/6/6 255/6/6
f 245/1/6 246/1/6 256/1/6
f 255/6/6 245/6/6 256/6/6
f 247/6/6 248/6/6 257/6/6
f 256/1/6 246/1/6 257/1/6
f 246/6/6 247/6/6 257/6/6
f 248/2/6 249/2/6 258/2/6
f 257/6/6 248/6/6 258/6/6
f 250/3/6 251/3/6 259/3/6
f 258/2/6 249/2/6 259/2/6
f 249/3/6 250/3/6 259/3/6
f 259/3/6 251/3/6 260/3/6
f 260/3/6 251/3/6 261/3/6
f 251/6/6 252/6/6 262/6/6
f 261/3/6 251/3/6 262/3/6
f 252/6/6 253/6/6 262/6/6
f 262/6/6 253/6/6 263/6/6
f 253/1/6 254/1/6 264/1/6
f 263/6/6 253/6/6 264/6/6
f 254/6/6 190/6/6 265/6/6
f 264/1/6 254/1/6 265/1/6
f 265/6/6 190/6/6 266/6/6
f 255/1/6 256/1/6 267/1/6
f 179/6/6 255/6/6 267/6/6
f 256/6/6 257/6/6 268/6/6
f 267/1/6 256/1/6 268/1/6
f 257/6/6 258/6/6 268/6/6
f 268/6/6 258/6/6 269/6/6
f 269/6/6 258/6/6 270/6/6
f 259/3/6 260/3/6 271/3/6
f 270/6/6 258/6/6 271/6/6
f 258/3/6 259/3/6 271/3/6
f 271/3/6 260/3/6 272/3/6
f 260/6/6 261/6/6 273/6/6
f 272/3/6 260/3/6 273/3/6
f 262/3/6 263/3/6 274/3/6
f 273/6/6 261/6/6 274/6/6
f 261/3/6 262/3/6 274/3/6
f 274/3/6 263/3/6 275/3/6
f 263/6/6 264/6/6 276/6/6
f 275/3/6 263/3/6 276/3/6
f 264/6/6 265/6/6 276/6/6
f 276/6/6 265/6/6 277/6/6
f 268/1/6 269/1/6 278/1/6
f 267/6/6 268/6/6 278/6/6
f 269/6/6 270/6/6 279/6/6
f 278/1/6 269/1/6 279/1/6
f 271/3/6 272/3/6 280/3/6
f 279/6/6 270/6/6 280/6/6
f 270/3/6 271/3/6 280/3/6
f 274/6/6 275/6/6 281/6/6
f 280/3/6 272/3/6 281/3/6
f 272/6/6 273/6/6 281/6/6
f 273/6/6 274/6/6 281/6/6
f 281/6/6 275/6/6 282/6/6
f 282/6/6 275/6/6 283/6/6
f 276/3/6 277/3/6 284/3/6
f 283/6/6 275/6/6 284/6/6
f 275/3/6 276/3/6 284/3/6
f 277/6/6 265/6/6 285/6/6
f 284/3/6 277/3/6 285/3/6
f 265/1/6 266/1/6 286/1/6
f 285/6/6 265/6/6 286/6/6
f 266/6/6 190/6/6 287/6/6
f 286/1/6 266/1/6 287/1/6
f 279/1/6 280/1/6 288/1/6
f 278/6/6 279/6/6 288/6/6
f 281/3/6 282/3/6 289/3/6
f 288/1/6 280/1/6 289/1/6
f 280/3/6 281/3/6 289/3/6
f 289/3/6 282/3/6 290/3/6
f 282/6/6 283/6/6 291/6/6
f 290/3/6 282/3/6 291/3/6
f 284/3/6 285/3/6 292/3/6
f 291/6/6 283/6/6 292/6/6
f 283/3/6 284/3/6 292/3/6
f 292/3/6 285/3/6 293/3/6
f 285/1/6 286/1/6 294/1/6
f 293/3/6 285/3/6 294/3/6
f 286/6/6 287/6/6 295/6/6
f 294/1/6 286/1/6 295/1/6
f 289/1/6 290/1/6 296/1/6
f 288/6/6 289/6/6 296/6/6
f 292/3/6 293/3/6 297/3/6
f 296/1/6 290/1/6 297/1/6
f 290/3/6 291/3/6 297/3/6
f 291/3/6 292/3/6 297/3/6
f 297/3/6 293/3/6 298/3/6
f 298/3/6 293/3/6 299/3/6
f 293/1/6 294/1/6 300/1/6
f 299/3/6 293/3/6 300/3/6
f 294/6/6 295/6/6 301/6/6
f 300/1/6 294/1/6 301/1/6
f 179/6/6 267/6/6 302/6/6
f 288/6/6 296/6/6 302/6/6
f 278/6/6 288/6/6 302/6/6
f 267/6/6 278/6/6 302/6/6
f 296/6/6 297/6/6 302/6/6
f 302/6/6 297/6/6 303/6/6
f 297/1/6 298/1/6 304/1/6
f 303/6/6 297/6/6 304/6/6
f 298/3/6 299/3/6 305/3/6
f 304/1/6 298/1/6 305/1/6
f 299/1/6 300/1/6 306/1/6
f 305/3/6 299/3/6 306/3/6
f 300/6/6 301/6/6 307/6/6
f 306/1/6 300/1/6 307/1/6
f 302/1/6 303/1/6 308/1/6
f 179/6/6 302/6/6 308/6/6
f 303/6/6 304/6/6 309/6/6
f 308/1/6 303/1/6 309/1/6
f 304/6/6 305/6/6 309/6/6
f 309/6/6 305/6/6 310/6/6
f 305/1/6 306/1/6 311/1/6
f 310/6/6 305/6/6 311/6/6
f 306/6/6 307/6/6 312/6/6
f 311/1/6 306/1/6 312/1/6
f 309/1/6 310/1/6 313/1/6
f 308/6/6 309/6/6 313/6/6
f 310/6/6 311/6/6 314/6/6
f 313/1/6 310/1/6 314/1/6
f 311/6/6 312/6/6 314/6/6
f 314/6/6 312/6/6 315/6/6
f 313/6/6 314/6/6 316/6/6
f 314/1/6 315/1/6 316/1/6
f 315/6/6 312/6/6 317/6/6
f 316/1/6 315/1/6 317/1/6
f 317/6/6 312/6/6 318/6/6
f 312/6/6 307/6/6 319/6/6
f 318/6/6 312/6/6 319/6/6
f 307/6/6 301/6/6 319/6/6
f 301/6/6 295/6/6 320/6/6
f 319/6/6 301/6/6 320/6/6
f 317/1/6 318/1/6 321/1/6
f 316/6/6 317/6/6 321/6/6
f 318/6/6 319/6/6 322/6/6
f 321/1/6 318/1/6 322/1/6
f 319/1/6 320/1/6 323/1/6
f 322/6/6 319/6/6 323/6/6
f 320/6/6 295/6/6 324/6/6
f 323/1/6 320/1/6 324/1/6
f 131/6/6 179/6/6 325/6/6
f 316/6/6 321/6/6 325/6/6
f 179/6/6 308/6/6 325/6/6
f 313/6/6 316/6/6 325/6/6
f 321/6/6 322/6/6 325/6/6
f 308/6/6 313/6/6 325/6/6
f 325/6/6 322/6/6 326/6/6
f 322/1/6 323/1/6 327/1/6
f 326/6/6 322/6/6 327/6/6
f 323/6/6 324/6/6 328/6/6
f 327/1/6 323/1/6 328/1/6
f 324/6/6 295/6/6 329/6/6
f 328/6/6 324/6/6 329/6/6
f 287/6/6 190/6/6 329/6/6
f 295/6/6 287/6/6 329/6/6
f 329/6/6 190/6/6 330/6/6
f 327/6/6 328/6/6 331/6/6
f 326/6/6 327/6/6 331/6/6
f 325/2/6 326/2/6 331/2/6
f 328/6/6 329/6/6 331/6/6
f 331/6/6 329/6/6 332/6/6
f 332/6/6 329/6/6 333/6/6
f 329/2/6 330/2/6 334/2/6
f 333/6/6 329/6/6 334/6/6
f 332/6/6 333/6/6 335/6/6
f 331/2/6 332/2/6 335/2/6
f 335/6/6 333/6/6 336/6/6
f 336/6/6 333/6/6 337/6/6
f 333/2/6 334/2/6 338/2/6
f 337/6/6 333/6/6 338/6/6
f 325/2/6 331/2/6 339/2/6
f 331/2/6 335/2/6 339/2/6
f 335/2/6 336/2/6 339/2/6
f 336/6/6 337/6/6 340/6/6
f 339/2/6 336/2/6 340/2/6
f 337/2/6 338/2/6 341/2/6
f 340/6/6 337/6/6 341/6/6
f 334/2/6 330/2/6 342/2/6
f 341/2/6 338/2/6 342/2/6
f 338/2/6 334/2/6 342/2/6
